# xmcd
#
# Track frame offsets:
#	195
#	16782
#	29221
#	42851
#	59289
#	76036
#	88395
#	103948
#	127489
#	141345
#	150648
#	165745
#	192334
#	203023
#	215314
#	230543
#	244806
#	260637
#	269149
#	285522
#
# Disc length: 4192 seconds
#
# Revision: 1
# Processed by: cddbd v1.5.2PL0 Copyright (c) Steve Scherf et al.
# Submitted via: EZCDAudioConverter 2.1.7.1
#
DISCID=30105e14
DTITLE=V/A - Eccentric Soul: The Bandit Label
DYEAR=1900
DGENRE=
TTITLE0=Majestic Arrows - One More Time Around
TTITLE1=The Arrows - We Have Love
TTITLE2=Majestic Arrows - Another Day
TTITLE3=Altyrone Deno Brown - If You Love Me
TTITLE4=Johnny Davis - You've Got To Crawl To Me
TTITLE5=Johnny Davis and The Arrows - Boogedy Boogedy
TTITLE6=Majestic Arrows - Doing It For Us
TTITLE7=Majestic Arrows - Love Is All I Need
TTITLE8=Linda Balintine - Glad About That
TTITLE9=The Arrows - Bring Back The One I Love
TTITLE10=Majestic Arrows - The Magic Of Your Love
TTITLE11=Majestic Arrows - I'll Never Cry For Another Boy
TTITLE12=Altyrone Deno Brown - Sweet Pea
TTITLE13=Johnny Davis and The Arrows - The Love I See Now
TTITLE14=Majestic Arrows - We Love Together
TTITLE15=Linda Balintine - You're A Hard Habit To Break
TTITLE16=Majestic Arrows - Going To Make A Time Machine
TTITLE17=Majestic Arrows - If I Had A Little Love [Rehearsal]
TTITLE18=Majestic Arrows - Make Yourself Over [Rehearsal]
TTITLE19=Majestic Arrows - I'll Never Cry For Another Boy [Rehearsal]
EXTD=
EXTT0=
EXTT1=
EXTT2=
EXTT3=
EXTT4=
EXTT5=
EXTT6=
EXTT7=
EXTT8=
EXTT9=
EXTT10=
EXTT11=
EXTT12=
EXTT13=
EXTT14=
EXTT15=
EXTT16=
EXTT17=
EXTT18=
EXTT19=
PLAYORDER=
